<?xml version="1.0" encoding="UTF-8" standalone="no"?>
<!DOCTYPE svg PUBLIC "-//W3C//DTD SVG 1.1//EN"
 "http://www.w3.org/Graphics/SVG/1.1/DTD/svg11.dtd">
<!-- Generated by graphviz version 2.43.0 (0)
 -->
<!-- Title: dependency&#45;cruiser output Pages: 1 -->
<svg width="524pt" height="170pt"
 viewBox="0.00 0.00 524.00 170.00" xmlns="http://www.w3.org/2000/svg" xmlns:xlink="http://www.w3.org/1999/xlink">
<g id="graph0" class="graph" transform="scale(1 1) rotate(0) translate(4 166)">
<title>dependency&#45;cruiser output</title>
<polygon fill="white" stroke="transparent" points="-4,4 -4,-166 520,-166 520,4 -4,4"/>
<g id="clust1" class="cluster">
<title>cluster_src</title>
<path fill="#ffffff" stroke="black" stroke-width="2" d="M20,-8C20,-8 496,-8 496,-8 502,-8 508,-14 508,-20 508,-20 508,-142 508,-142 508,-148 502,-154 496,-154 496,-154 20,-154 20,-154 14,-154 8,-148 8,-142 8,-142 8,-20 8,-20 8,-14 14,-8 20,-8"/>
<text text-anchor="middle" x="258" y="-142.8" font-family="Helvetica,sans-Serif" font-weight="bold" font-size="9.00">src</text>
</g>
<g id="clust2" class="cluster">
<title>cluster_src/components</title>
<path fill="#ffffff" stroke="black" stroke-width="2" d="M247,-16C247,-16 307,-16 307,-16 313,-16 319,-22 319,-28 319,-28 319,-56 319,-56 319,-62 313,-68 307,-68 307,-68 247,-68 247,-68 241,-68 235,-62 235,-56 235,-56 235,-28 235,-28 235,-22 241,-16 247,-16"/>
<text text-anchor="middle" x="277" y="-56.8" font-family="Helvetica,sans-Serif" font-weight="bold" font-size="9.00">components</text>
</g>
<g id="clust3" class="cluster">
<title>cluster_src/hooks</title>
<path fill="#ffffff" stroke="black" stroke-width="2" d="M339,-16C339,-16 410,-16 410,-16 416,-16 422,-22 422,-28 422,-28 422,-56 422,-56 422,-62 416,-68 410,-68 410,-68 339,-68 339,-68 333,-68 327,-62 327,-56 327,-56 327,-28 327,-28 327,-22 333,-16 339,-16"/>
<text text-anchor="middle" x="374.5" y="-56.8" font-family="Helvetica,sans-Serif" font-weight="bold" font-size="9.00">hooks</text>
</g>
<g id="clust4" class="cluster">
<title>cluster_src/modules</title>
<path fill="#ffffff" stroke="black" stroke-width="2" d="M351.5,-76C351.5,-76 488,-76 488,-76 494,-76 500,-82 500,-88 500,-88 500,-116 500,-116 500,-122 494,-128 488,-128 488,-128 351.5,-128 351.5,-128 345.5,-128 339.5,-122 339.5,-116 339.5,-116 339.5,-88 339.5,-88 339.5,-82 345.5,-76 351.5,-76"/>
<text text-anchor="middle" x="419.75" y="-116.8" font-family="Helvetica,sans-Serif" font-weight="bold" font-size="9.00">modules</text>
</g>
<!-- src/App.css -->
<g id="node1" class="node">
<title>src/App.css</title>
<g id="a_node1"><a xlink:href="src/App.css" xlink:title="App.css">
<path fill="#ffffcc" stroke="black" d="M298,-94C298,-94 256,-94 256,-94 253,-94 250,-91 250,-88 250,-88 250,-82 250,-82 250,-79 253,-76 256,-76 256,-76 298,-76 298,-76 301,-76 304,-79 304,-82 304,-82 304,-88 304,-88 304,-91 301,-94 298,-94"/>
<text text-anchor="start" x="259" y="-82.8" font-family="Helvetica,sans-Serif" font-size="9.00">App.css</text>
</a>
</g>
</g>
<!-- src/App.test.tsx -->
<g id="node2" class="node">
<title>src/App.test.tsx</title>
<g id="a_node2"><a xlink:href="src/App.test.tsx" xlink:title="App.test.tsx">
<path fill="#bbfeff" stroke="black" d="M95,-94C95,-94 36,-94 36,-94 33,-94 30,-91 30,-88 30,-88 30,-82 30,-82 30,-79 33,-76 36,-76 36,-76 95,-76 95,-76 98,-76 101,-79 101,-82 101,-82 101,-88 101,-88 101,-91 98,-94 95,-94"/>
<text text-anchor="start" x="38" y="-82.8" font-family="Helvetica,sans-Serif" font-size="9.00">App.test.tsx</text>
</a>
</g>
</g>
<!-- src/App.tsx -->
<g id="node3" class="node">
<title>src/App.tsx</title>
<g id="a_node3"><a xlink:href="src/App.tsx" xlink:title="App.tsx">
<path fill="#bbfeff" stroke="black" d="M198.5,-54C198.5,-54 156.5,-54 156.5,-54 153.5,-54 150.5,-51 150.5,-48 150.5,-48 150.5,-42 150.5,-42 150.5,-39 153.5,-36 156.5,-36 156.5,-36 198.5,-36 198.5,-36 201.5,-36 204.5,-39 204.5,-42 204.5,-42 204.5,-48 204.5,-48 204.5,-51 201.5,-54 198.5,-54"/>
<text text-anchor="start" x="160" y="-42.8" font-family="Helvetica,sans-Serif" font-size="9.00">App.tsx</text>
</a>
</g>
</g>
<!-- src/App.test.tsx&#45;&gt;src/App.tsx -->
<g id="edge1" class="edge">
<title>src/App.test.tsx&#45;&gt;src/App.tsx</title>
<path fill="none" stroke="#000000" stroke-width="2" stroke-opacity="0.200000" d="M98.9,-75.94C104.34,-74.15 109.88,-72.15 115,-70 121.05,-67.46 122.02,-65.7 128,-63 133.23,-60.64 138.87,-58.33 144.39,-56.2"/>
<polygon fill="#000000" fill-opacity="0.200000" stroke="#000000" stroke-width="2" stroke-opacity="0.200000" points="145.43,-58.05 150.31,-53.97 143.95,-54.12 145.43,-58.05"/>
</g>
<!-- src/App.tsx&#45;&gt;src/App.css -->
<g id="edge2" class="edge">
<title>src/App.tsx&#45;&gt;src/App.css</title>
<path fill="none" stroke="#000000" stroke-width="2" stroke-opacity="0.200000" d="M204.65,-52.38C212.18,-55.11 220.2,-58.64 227,-63 231.23,-65.72 230.73,-68.34 235,-71 237.79,-72.74 240.83,-74.29 243.94,-75.68"/>
<polygon fill="#000000" fill-opacity="0.200000" stroke="#000000" stroke-width="2" stroke-opacity="0.200000" points="243.25,-77.66 249.6,-77.98 244.83,-73.77 243.25,-77.66"/>
</g>
<!-- src/components/Counter.tsx -->
<g id="node4" class="node">
<title>src/components/Counter.tsx</title>
<g id="a_node4"><a xlink:href="src/components/Counter.tsx" xlink:title="Counter.tsx">
<path fill="#bbfeff" stroke="black" d="M305,-42C305,-42 249,-42 249,-42 246,-42 243,-39 243,-36 243,-36 243,-30 243,-30 243,-27 246,-24 249,-24 249,-24 305,-24 305,-24 308,-24 311,-27 311,-30 311,-30 311,-36 311,-36 311,-39 308,-42 305,-42"/>
<text text-anchor="start" x="251" y="-30.8" font-family="Helvetica,sans-Serif" font-size="9.00">Counter.tsx</text>
</a>
</g>
</g>
<!-- src/App.tsx&#45;&gt;src/components/Counter.tsx -->
<g id="edge3" class="edge">
<title>src/App.tsx&#45;&gt;src/components/Counter.tsx</title>
<path fill="none" stroke="#000000" stroke-width="2" stroke-opacity="0.200000" d="M204.63,-41.78C214.44,-40.58 225.81,-39.18 236.56,-37.85"/>
<polygon fill="#000000" fill-opacity="0.200000" stroke="#000000" stroke-width="2" stroke-opacity="0.200000" points="237.11,-39.9 242.8,-37.09 236.59,-35.73 237.11,-39.9"/>
</g>
<!-- src/hooks/useCounter.ts -->
<g id="node5" class="node">
<title>src/hooks/useCounter.ts</title>
<g id="a_node5"><a xlink:href="src/hooks/useCounter.ts" xlink:title="useCounter.ts">
<path fill="#ddfeff" stroke="black" d="M408,-42C408,-42 341,-42 341,-42 338,-42 335,-39 335,-36 335,-36 335,-30 335,-30 335,-27 338,-24 341,-24 341,-24 408,-24 408,-24 411,-24 414,-27 414,-30 414,-30 414,-36 414,-36 414,-39 411,-42 408,-42"/>
<text text-anchor="start" x="343" y="-30.8" font-family="Helvetica,sans-Serif" font-size="9.00">useCounter.ts</text>
</a>
</g>
</g>
<!-- src/components/Counter.tsx&#45;&gt;src/hooks/useCounter.ts -->
<g id="edge4" class="edge">
<title>src/components/Counter.tsx&#45;&gt;src/hooks/useCounter.ts</title>
<path fill="none" stroke="#000000" stroke-width="2" stroke-opacity="0.200000" d="M311.13,-33C316.75,-33 322.67,-33 328.53,-33"/>
<polygon fill="#000000" fill-opacity="0.200000" stroke="#000000" stroke-width="2" stroke-opacity="0.200000" points="328.85,-35.1 334.85,-33 328.85,-30.9 328.85,-35.1"/>
</g>
<!-- src/modules/counter.ts -->
<g id="node6" class="node">
<title>src/modules/counter.ts</title>
<g id="a_node6"><a xlink:href="src/modules/counter.ts" xlink:title="counter.ts">
<path fill="#ddfeff" stroke="black" d="M486,-102C486,-102 436,-102 436,-102 433,-102 430,-99 430,-96 430,-96 430,-90 430,-90 430,-87 433,-84 436,-84 436,-84 486,-84 486,-84 489,-84 492,-87 492,-90 492,-90 492,-96 492,-96 492,-99 489,-102 486,-102"/>
<text text-anchor="start" x="438" y="-90.8" font-family="Helvetica,sans-Serif" font-size="9.00">counter.ts</text>
</a>
</g>
</g>
<!-- src/hooks/useCounter.ts&#45;&gt;src/modules/counter.ts -->
<g id="edge5" class="edge">
<title>src/hooks/useCounter.ts&#45;&gt;src/modules/counter.ts</title>
<path fill="none" stroke="#000000" stroke-width="2" stroke-opacity="0.200000" d="M388.33,-42.11C402.69,-52.3 426.03,-68.88 442.15,-80.33"/>
<polygon fill="#000000" fill-opacity="0.200000" stroke="#000000" stroke-width="2" stroke-opacity="0.200000" points="441.21,-82.24 447.32,-84 443.65,-78.81 441.21,-82.24"/>
</g>
<!-- src/index.css -->
<g id="node7" class="node">
<title>src/index.css</title>
<g id="a_node7"><a xlink:href="src/index.css" xlink:title="index.css">
<path fill="#ffffcc" stroke="black" d="M201,-98C201,-98 154,-98 154,-98 151,-98 148,-95 148,-92 148,-92 148,-86 148,-86 148,-83 151,-80 154,-80 154,-80 201,-80 201,-80 204,-80 207,-83 207,-86 207,-86 207,-92 207,-92 207,-95 204,-98 201,-98"/>
<text text-anchor="start" x="156" y="-86.8" font-family="Helvetica,sans-Serif" font-size="9.00">index.css</text>
</a>
</g>
</g>
<!-- src/index.tsx -->
<g id="node8" class="node">
<title>src/index.tsx</title>
<g id="a_node8"><a xlink:href="src/index.tsx" xlink:title="index.tsx">
<path fill="#bbfeff" stroke="black" d="M88.5,-124C88.5,-124 42.5,-124 42.5,-124 39.5,-124 36.5,-121 36.5,-118 36.5,-118 36.5,-112 36.5,-112 36.5,-109 39.5,-106 42.5,-106 42.5,-106 88.5,-106 88.5,-106 91.5,-106 94.5,-109 94.5,-112 94.5,-112 94.5,-118 94.5,-118 94.5,-121 91.5,-124 88.5,-124"/>
<text text-anchor="start" x="44.5" y="-112.8" font-family="Helvetica,sans-Serif" font-size="9.00">index.tsx</text>
</a>
</g>
</g>
<!-- src/index.tsx&#45;&gt;src/App.tsx -->
<g id="edge6" class="edge">
<title>src/index.tsx&#45;&gt;src/App.tsx</title>
<path fill="none" stroke="#000000" stroke-width="2" stroke-opacity="0.200000" d="M94.53,-111.05C101.94,-108.83 109.41,-105.38 115,-100 127.56,-87.91 115.78,-75.43 128,-63 132.63,-58.29 138.59,-54.8 144.75,-52.22"/>
<polygon fill="#000000" fill-opacity="0.200000" stroke="#000000" stroke-width="2" stroke-opacity="0.200000" points="145.54,-54.17 150.43,-50.1 144.07,-50.23 145.54,-54.17"/>
</g>
<!-- src/index.tsx&#45;&gt;src/index.css -->
<g id="edge7" class="edge">
<title>src/index.tsx&#45;&gt;src/index.css</title>
<path fill="none" stroke="#000000" stroke-width="2" stroke-opacity="0.200000" d="M94.54,-108.37C108.93,-104.97 126.58,-100.8 141.82,-97.2"/>
<polygon fill="#000000" fill-opacity="0.200000" stroke="#000000" stroke-width="2" stroke-opacity="0.200000" points="142.39,-99.22 147.74,-95.8 141.42,-95.13 142.39,-99.22"/>
</g>
<!-- src/modules/index.ts -->
<g id="node9" class="node">
<title>src/modules/index.ts</title>
<g id="a_node9"><a xlink:href="src/modules/index.ts" xlink:title="index.ts">
<path fill="#ddfeff" stroke="black" d="M395.5,-102C395.5,-102 353.5,-102 353.5,-102 350.5,-102 347.5,-99 347.5,-96 347.5,-96 347.5,-90 347.5,-90 347.5,-87 350.5,-84 353.5,-84 353.5,-84 395.5,-84 395.5,-84 398.5,-84 401.5,-87 401.5,-90 401.5,-90 401.5,-96 401.5,-96 401.5,-99 398.5,-102 395.5,-102"/>
<text text-anchor="start" x="356" y="-90.8" font-family="Helvetica,sans-Serif" font-size="9.00">index.ts</text>
</a>
</g>
</g>
<!-- src/index.tsx&#45;&gt;src/modules/index.ts -->
<g id="edge8" class="edge">
<title>src/index.tsx&#45;&gt;src/modules/index.ts</title>
<path fill="none" stroke="#000000" stroke-width="2" stroke-opacity="0.200000" d="M94.61,-110.43C101.85,-108.21 109.22,-104.9 115,-100 124.85,-91.64 117.01,-80.79 128,-74 146.71,-62.43 209.3,-60.93 227,-74 236.73,-81.18 225.27,-92.82 235,-100 265.03,-122.18 281.74,-102.38 319,-100 326.21,-99.54 333.93,-98.74 341.23,-97.84"/>
<polygon fill="#000000" fill-opacity="0.200000" stroke="#000000" stroke-width="2" stroke-opacity="0.200000" points="341.55,-99.91 347.23,-97.06 341.01,-95.75 341.55,-99.91"/>
</g>
<!-- src/reportWebVitals.ts -->
<g id="node10" class="node">
<title>src/reportWebVitals.ts</title>
<g id="a_node10"><a xlink:href="src/reportWebVitals.ts" xlink:title="reportWebVitals.ts">
<path fill="#ddfeff" stroke="black" d="M221,-128C221,-128 134,-128 134,-128 131,-128 128,-125 128,-122 128,-122 128,-116 128,-116 128,-113 131,-110 134,-110 134,-110 221,-110 221,-110 224,-110 227,-113 227,-116 227,-116 227,-122 227,-122 227,-125 224,-128 221,-128"/>
<text text-anchor="start" x="136" y="-116.8" font-family="Helvetica,sans-Serif" font-size="9.00">reportWebVitals.ts</text>
</a>
</g>
</g>
<!-- src/index.tsx&#45;&gt;src/reportWebVitals.ts -->
<g id="edge9" class="edge">
<title>src/index.tsx&#45;&gt;src/reportWebVitals.ts</title>
<path fill="none" stroke="#000000" stroke-width="2" stroke-opacity="0.200000" d="M94.54,-116.02C102.9,-116.32 112.35,-116.67 121.8,-117.01"/>
<polygon fill="#000000" fill-opacity="0.200000" stroke="#000000" stroke-width="2" stroke-opacity="0.200000" points="121.92,-119.12 127.99,-117.24 122.07,-114.92 121.92,-119.12"/>
</g>
<!-- src/modules/index.ts&#45;&gt;src/modules/counter.ts -->
<g id="edge10" class="edge">
<title>src/modules/index.ts&#45;&gt;src/modules/counter.ts</title>
<path fill="none" stroke="#000000" stroke-width="2" stroke-opacity="0.200000" d="M401.77,-93C408.74,-93 416.38,-93 423.77,-93"/>
<polygon fill="#000000" fill-opacity="0.200000" stroke="#000000" stroke-width="2" stroke-opacity="0.200000" points="423.9,-95.1 429.9,-93 423.9,-90.9 423.9,-95.1"/>
</g>
<!-- src/react&#45;app&#45;env.d.ts -->
<g id="node11" class="node">
<title>src/react&#45;app&#45;env.d.ts</title>
<g id="a_node11"><a xlink:href="src/react-app-env.d.ts" xlink:title="react&#45;app&#45;env.d.ts">
<path fill="#ccffcc" stroke="black" d="M109,-64C109,-64 22,-64 22,-64 19,-64 16,-61 16,-58 16,-58 16,-52 16,-52 16,-49 19,-46 22,-46 22,-46 109,-46 109,-46 112,-46 115,-49 115,-52 115,-52 115,-58 115,-58 115,-61 112,-64 109,-64"/>
<text text-anchor="start" x="24" y="-52.8" font-family="Helvetica,sans-Serif" font-size="9.00">react&#45;app&#45;env.d.ts</text>
</a>
</g>
</g>
<!-- src/setupTests.ts -->
<g id="node12" class="node">
<title>src/setupTests.ts</title>
<g id="a_node12"><a xlink:href="src/setupTests.ts" xlink:title="setupTests.ts">
<path fill="#ccffcc" stroke="black" d="M97,-34C97,-34 34,-34 34,-34 31,-34 28,-31 28,-28 28,-28 28,-22 28,-22 28,-19 31,-16 34,-16 34,-16 97,-16 97,-16 100,-16 103,-19 103,-22 103,-22 103,-28 103,-28 103,-31 100,-34 97,-34"/>
<text text-anchor="start" x="36" y="-22.8" font-family="Helvetica,sans-Serif" font-size="9.00">setupTests.ts</text>
</a>
</g>
</g>
</g>
</svg>
